#!OML:ASF F:\VICON\USERDATA\INSTALL\rory3\rory3.ASF
:FULLY-SPECIFIED
:DEGREES
309
root -0.510746 17.7747 -6.43518 4.44595 -0.547601 -7.50165
lowerback 4.92859 3.11372 2.54032
upperback -0.485606 4.45809 4.40281
thorax -3.42476 2.21651 2.77624
lowerneck -15.4382 -5.94964 -15.0891
upperneck 28.7155 -6.48636 7.49654
head 12.9532 -3.56337 4.4496
rclavicle -2.11706e-014 1.51076e-014
rhumerus -27.878 -11.8575 -72.365
rradius 39.0842
rwrist -17.8764
rhand -13.4931 18.6501
rfingers 7.12502
rthumb 12.6178 -10.9488
lclavicle -2.11706e-014 1.51076e-014
lhumerus -38.7056 9.24076 83.1129
lradius 31.6306
lwrist -8.92306
lhand 1.56903 30.8992
lfingers 7.12502
lthumb 27.0924 58.9752
rfemur 14.4536 5.49153 31.8498
rtibia 14.7768
rfoot -12.5356 -7.7614
rtoes 3.13962
lfemur -34.4191 -2.72927 -9.75953
ltibia 26.6087
lfoot -12.1773 2.48466
ltoes -3.09532
310
root -0.476297 17.7767 -6.22266 4.44728 -0.960746 -7.30522
lowerback 4.75436 3.23129 2.40802
upperback -0.57178 4.60046 4.33684
thorax -3.42549 2.28962 2.77758
lowerneck -15.1262 -5.91292 -15.1685
upperneck 28.7701 -6.47044 7.51696
head 12.9125 -3.57013 4.47987
rclavicle 1.87355e-014 -4.77083e-015
rhumerus -28.314 -11.8919 -72.293
rradius 39.0416
rwrist -17.7789
rhand -13.6199 18.6219
rfingers 7.12502
rthumb 12.4956 -10.9845
lclavicle 1.87355e-014 -4.77083e-015
lhumerus -39.0663 9.55451 82.8576
lradius 31.3243
lwrist -9.15805
lhand 1.46963 30.6742
lfingers 7.12502
lthumb 26.9973 58.765
rfemur 14.5341 5.77139 31.4521
rtibia 15.9119
rfoot -12.0974 -7.38841
rtoes 3.15189
lfemur -33.8645 -2.54346 -10.208
ltibia 27.1027
lfoot -11.0858 1.54428
ltoes -2.61305
311
root -0.439638 17.7937 -6.00636 4.50626 -1.19825 -6.93162
lowerback 4.4482 3.30023 2.17292
upperback -0.615777 4.66099 4.19145
thorax -3.3068 2.32384 2.76965
lowerneck -15.0813 -5.87414 -15.1628
upperneck 28.9083 -6.4244 7.50303
head 12.9529 -3.55524 4.48614
rclavicle -1.05853e-014 -1.39149e-014
rhumerus -28.6177 -12.079 -72.2374
rradius 38.8262
rwrist -17.7229
rhand -13.5962 18.8221
rfingers 7.12502
rthumb 12.5184 -10.7829
lclavicle -1.05853e-014 -1.39149e-014
lhumerus -39.2886 9.939 82.5626
lradius 31.0774
lwrist -9.43595
lhand 1.65617 31.0066
lfingers 7.12502
lthumb 27.1757 59.0696
rfemur 14.4889 5.88283 30.8548
rtibia 17.0788
rfoot -11.3791 -7.02656
rtoes 2.79312
lfemur -33.5348 -2.34437 -10.938
ltibia 27.6151
lfoot -9.47259 0.587508
ltoes -3.87028
312
root -0.4111 17.8074 -5.8019 4.4683 -1.17298 -6.65794
lowerback 4.40062 3.28086 2.00742
upperback -0.65622 4.62125 4.05646
thorax -3.32185 2.30575 2.72642
lowerneck -15.1575 -5.84474 -15.0064
upperneck 29.0751 -6.4073 7.45612
head 13.0261 -3.53902 4.44809
rclavicle -8.89064e-014 -1.70955e-014
rhumerus -28.9225 -12.3974 -72.2242
rradius 38.6219
rwrist -17.6934
rhand -13.4136 19.0027
rfingers 7.12502
rthumb 12.6945 -10.5915
lclavicle -8.89064e-014 -1.70955e-014
lhumerus -39.2601 10.4584 82.1212
lradius 30.4935
lwrist -9.92912
lhand 1.72287 30.9897
lfingers 7.12502
lthumb 27.2395 59.0428
rfemur 14.3729 5.95059 30.5487
rtibia 18.4892
rfoot -10.4366 -7.04165
rtoes 1.5805
lfemur -33.3188 -2.31872 -11.4603
ltibia 28.0298
lfoot -7.69744 -0.578477
ltoes -4.34167
313
root -0.378174 17.8192 -5.57854 4.29393 -0.953291 -6.21363
lowerback 4.23441 3.17307 1.73671
upperback -0.609143 4.44768 3.89416
thorax -3.18024 2.22319 2.73283
lowerneck -15.2669 -5.82239 -14.9911
upperneck 29.3648 -6.4014 7.54147
head 13.1712 -3.52924 4.48924
rclavicle 4.51241e-014 -1.31198e-014
rhumerus -29.205 -12.7942 -72.1821
rradius 38.3699
rwrist -17.4669
rhand -13.1563 19.036
rfingers 7.12502
rthumb 12.9425 -10.5426
lclavicle 4.51241e-014 -1.31198e-014
lhumerus -39.1837 10.9825 81.7118
lradius 29.8504
lwrist -10.2446
lhand 1.62158 30.9962
lfingers 7.12502
lthumb 27.1426 59.0644
rfemur 14.2465 5.62666 29.968
rtibia 20.2933
rfoot -9.57123 -6.85071
rtoes 0.231235
lfemur -32.8562 -2.70646 -12.0919
ltibia 28.2616
lfoot -6.28377 -1.73043
ltoes -2.8074
314
root -0.352334 17.8373 -5.36421 4.1096 -0.817852 -5.52369
lowerback 4.2011 3.10137 1.09131
upperback -0.612375 4.3118 3.71401
thorax -3.19277 2.16577 2.91744
lowerneck -15.3747 -5.76905 -15.0597
upperneck 29.6804 -6.33866 7.66439
head 13.3251 -3.49986 4.57136
rclavicle 2.38045e-014 3.18055e-014
rhumerus -29.5321 -13.2302 -72.0609
rradius 38.0997
rwrist -17.1837
rhand -12.8515 18.8879
rfingers 7.12502
rthumb 13.2363 -10.6718
lclavicle 2.38045e-014 3.18055e-014
lhumerus -39.3899 11.266 81.4573
lradius 29.5897
lwrist -10.1814
lhand 1.49694 31.213
lfingers 7.12502
lthumb 27.0234 59.2997
rfemur 13.7184 5.38528 29.1374
rtibia 22.492
rfoot -8.32574 -6.66175
rtoes -0.0250011
lfemur -32.2523 -3.25283 -12.881
ltibia 28.338
lfoot -4.96136 -2.67984
ltoes -1.11986
315
root -0.328034 17.8535 -5.15833 3.89029 -0.604952 -4.63196
lowerback 4.3291 3.03122 0.258468
upperback -0.618174 4.1694 3.4401
thorax -3.30268 2.10768 3.1022
lowerneck -15.3597 -5.74995 -14.8214
upperneck 29.7687 -6.33078 7.48599
head 13.3404 -3.49433 4.46248
rclavicle -5.86415e-014 -2.18663e-014
rhumerus -29.7248 -13.88 -71.9655
rradius 37.5401
rwrist -16.841
rhand -12.5978 19.0081
rfingers 7.12502
rthumb 13.4809 -10.5356
lclavicle -5.86415e-014 -2.18663e-014
lhumerus -39.6955 11.2909 81.2334
lradius 29.5421
lwrist -10.0511
lhand 1.25652 30.9603
lfingers 7.12502
lthumb 26.7933 59.0825
rfemur 12.9405 4.89346 28.0068
rtibia 24.9847
rfoot -6.59593 -6.29474
rtoes 1.30934
lfemur -31.5841 -3.89734 -13.8772
ltibia 28.3743
lfoot -3.50223 -3.38725
ltoes 1.5091
316
root -0.303425 17.8579 -4.95704 3.66762 -0.327183 -3.93071
lowerback 4.46744 2.95009 -0.331735
upperback -0.56683 4.02188 3.19883
thorax -3.34218 2.04229 3.188
lowerneck -15.2721 -5.79595 -14.5565
upperneck 29.7136 -6.40512 7.22581
head 13.2875 -3.53 4.29777
rclavicle 4.74598e-014 -7.95139e-015
rhumerus -29.8468 -14.624 -71.8952
rradius 36.9804
rwrist -16.3828
rhand -12.5311 19.1367
rfingers 7.12502
rthumb 13.5452 -10.4028
lclavicle 4.74598e-014 -7.95139e-015
lhumerus -39.857 11.3883 80.9703
lradius 29.434
lwrist -10.073
lhand 1.1765 30.8907
lfingers 7.12502
lthumb 26.7168 59.0246
rfemur 12.0133 4.16835 27.0176
rtibia 27.7459
rfoot -4.69366 -5.7965
rtoes 1.84442
lfemur -30.8468 -4.27764 -14.7771
ltibia 28.493
lfoot -2.56888 -3.90659
ltoes 3.79668
317
root -0.277565 17.8584 -4.75613 3.4154 0.0102218 -3.42123
lowerback 4.77001 2.82107 -0.721385
upperback -0.67304 3.82779 3.02661
thorax -3.62427 1.95373 3.22574
lowerneck -15.0014 -5.76716 -14.5872
upperneck 29.7894 -6.43583 7.33121
head 13.2704 -3.54114 4.3467
rclavicle -5.29264e-015 1.66979e-014
rhumerus -30.5362 -14.9885 -71.7898
rradius 36.9388
rwrist -16.1248
rhand -12.4969 19.0616
rfingers 7.12502
rthumb 13.5781 -10.4757
lclavicle -5.29264e-015 1.66979e-014
lhumerus -40.2662 11.7481 80.5232
lradius 29.1831
lwrist -10.2197
lhand 1.22327 31.3916
lfingers 7.12502
lthumb 26.7615 59.5187
rfemur 11.0419 3.24475 26.1928
rtibia 30.5511
rfoot -2.39084 -5.40094
rtoes 1.7774
lfemur -30.0364 -4.22549 -15.6438
ltibia 28.8091
lfoot -2.49607 -4.55904
ltoes 3.87856
318
root -0.250218 17.8579 -4.5551 3.16223 0.421032 -2.97673
lowerback 4.96318 2.63575 -1.0812
upperback -0.733021 3.55719 2.91673
thorax -3.79284 1.82703 3.32668
lowerneck -14.7977 -5.70889 -14.7235
upperneck 29.8682 -6.41349 7.53307
head 13.2698 -3.52799 4.46127
rclavicle 2.00276e-014 3.33958e-014
rhumerus -31.2008 -15.1544 -71.6914
rradius 36.9745
rwrist -16.1075
rhand -12.3534 18.9203
rfingers 7.12502
rthumb 13.7164 -10.6077
lclavicle 2.00276e-014 3.33958e-014
lhumerus -40.5014 12.3345 80.0426
lradius 28.6551
lwrist -10.3998
lhand 1.16553 31.6737
lfingers 7.12502
lthumb 26.7063 59.8093
rfemur 10.1572 2.34183 25.4089
rtibia 33.2631
rfoot 0.534957 -5.14603
rtoes 4.42448
lfemur -29.3589 -4.02172 -16.4704
ltibia 29.3277
lfoot -2.68902 -5.24412
ltoes 4.45679
319
root -0.221826 17.8548 -4.35217 2.90046 0.640433 -2.58988
lowerback 4.90204 2.49922 -1.41713
upperback -0.535064 3.34809 2.86584
thorax -3.55519 1.7248 3.48795
lowerneck -14.9879 -5.72817 -14.7601
upperneck 29.8294 -6.38593 7.49065
head 13.291 -3.52104 4.45098
rclavicle -2.9768e-014 -8.74653e-015
rhumerus -31.2842 -15.6677 -71.5808
rradius 36.6967
rwrist -15.7816
rhand -12.1509 18.7931
rfingers 7.12502
rthumb 13.9116 -10.7215
lclavicle -2.9768e-014 -8.74653e-015
lhumerus -40.3485 12.9467 79.7397
lradius 28.1573
lwrist -10.4733
lhand 1.07648 31.3361
lfingers 7.12502
lthumb 26.621 59.4846
rfemur 9.24325 1.8125 24.6761
rtibia 35.8774
rfoot 3.78221 -4.94489
rtoes 8.35465
lfemur -28.756 -3.77142 -17.1807
ltibia 29.9733
lfoot -2.89211 -5.81055
ltoes 5.7756
